<mxfile host="Electron" modified="2024-05-17T07:33:23.212Z" agent="Mozilla/5.0 (Windows NT 10.0; Win64; x64) AppleWebKit/537.36 (KHTML, like Gecko) draw.io/24.4.0 Chrome/120.0.6099.109 Electron/28.1.0 Safari/537.36" etag="cmBPggpr95ev0h2vC-TY" version="24.4.0" type="device">
  <diagram name="第1頁" id="35Uv-e-9lRvTRcjUk7GW">
    <mxGraphModel dx="1434" dy="844" grid="0" gridSize="10" guides="1" tooltips="1" connect="1" arrows="1" fold="1" page="1" pageScale="1" pageWidth="827" pageHeight="1169" math="0" shadow="0">
      <root>
        <mxCell id="0" />
        <mxCell id="1" parent="0" />
        <mxCell id="7C21yTUGDn6yJx2N35cv-1" value="題目: BST,給root,和整數k，求具有k弟個小數值node的數值" style="rounded=1;whiteSpace=wrap;html=1;" vertex="1" parent="1">
          <mxGeometry x="93" y="53" width="695" height="60" as="geometry" />
        </mxCell>
        <mxCell id="7C21yTUGDn6yJx2N35cv-2" value="使用Traversal+Recursive，把n+1傳左邊，n+2傳右邊，當找到k時，回傳index。" style="rounded=1;whiteSpace=wrap;html=1;" vertex="1" parent="1">
          <mxGeometry x="469" y="245" width="334" height="60" as="geometry" />
        </mxCell>
        <mxCell id="7C21yTUGDn6yJx2N35cv-3" value="Traversal" style="rounded=1;whiteSpace=wrap;html=1;" vertex="1" parent="1">
          <mxGeometry x="492" y="169" width="292" height="60" as="geometry" />
        </mxCell>
        <mxCell id="7C21yTUGDn6yJx2N35cv-4" value="Recursive" style="rounded=1;whiteSpace=wrap;html=1;" vertex="1" parent="1">
          <mxGeometry x="473" y="321" width="120" height="60" as="geometry" />
        </mxCell>
        <mxCell id="7C21yTUGDn6yJx2N35cv-5" value="While" style="rounded=1;whiteSpace=wrap;html=1;" vertex="1" parent="1">
          <mxGeometry x="660" y="321" width="120" height="60" as="geometry" />
        </mxCell>
        <mxCell id="7C21yTUGDn6yJx2N35cv-6" value="" style="shape=image;verticalLabelPosition=bottom;labelBackgroundColor=default;verticalAlign=top;aspect=fixed;imageAspect=0;image=data:image/png,iVBORw0KGgoAAAANSUhEUgAAAXcAAAEnCAYAAABSTgMJAAAAAXNSR0IArs4c6QAAAARnQU1BAACxjwv8YQUAAAAJcEhZcwAADsMAAA7DAcdvqGQAADk8SURBVHhe7Z0LdBVVmu8/CBCegQABA0GEEJDwDCgQooC2HbB9QI+N7bIP9PSgMwPRHsHVV9rVGsFZNq65Eqdb8M4ot+/A0aXS2AjtEqK2xDYEEYK8AiYEBCIBAgTC+xG8+79P7aTOyTknJy/OSfn/sYqq2rV31a5Knf/+9re/qmrxvUJ8uH79uly6dMlaI4QQ0txoac29qKystJYIIYQ0R/yKOyx3QgghzReKOyGEOBC/4u7HDU8IIaQZ4VfcCSGENG8o7oQQ4kAo7oQQ4kAo7oQQ4kAo7oQQ4kAo7oQQ4kAo7oQQ4kAo7oQQ4kAo7oQQ4kAo7oQQ4kAo7oQQ4kAo7oQQ4kD8fqzjwoUL1tKNo6SkRN5//309YTkhIUGnjx07Vv7hH/5BzwkhhIRG2MUdQj5//nzZtGmTXjeijrlJA1h3u91V2wkhhAQmrG6ZL7/8UiZNmqRFfNy4cfLWW2/Jhg0b9AQh37dvn17GNjQCLpdLl3EexeL+l/Ey+sEFsqHCSiKEkAYQNnGHWP/iF7/Qy7/+9a+1mBvXy6pVq+QPf/iDXjYWO/KgzDPPPKPntZMtC5KSJMlnGn3Xw5LxylopvmxlI4QQBxI2twyscFjssNZ9/emw5gGsdjsQfYg7LHkIfnAg7hniHpkuruE9rLTLcnzbBsneWSYxg+fIa3+ZK6lR1qYbQEXuMnnhTyul88PrJDPdSiSEkCYgLJY7XCvGFVOXgdKHHnpIl0HZkN0zyVMl87lMa3pJlrz/mXzwdKrInqXyf98KpQfQeJTtyZG1OcXWGiGENB1hEXdExIBFixbpeV0wZcw+6k60JD/ukslqaUNxgSeJEEIcRtgsd1CfyBdTpkEDq1GQeF8sH31mtrVux9+2Ylk2Q6XNWCbFlSWS/UqGTB3v8euPn/y4LPjI1isoXCYzVfqUl/P0qjvDky8paYHaM7D2VbUObPu/XCArfzdT7hqDPONl6m/cUqDHDCpk2/JnZeZdo/X+Rt810/u4dsryxP27x2WKVUeMPcx7M0/KKq3thBBHERZxx4Ao3Cu1EWjgNJSyQSk5LthzQodOnvUGUSEbFmbIksIe8uDTi+WlZ6bLgLMbxP3rx2RRrpXlpknyT1mLJfPnyXp10r8ulsVqfXHWg+JJCUaJuP8lQ9bKRJnzfKbMuTtOSlYvkBm/Wyl5bz4hj71VJimPvyCLF8yRUW2UgNuPayhXjZNrpmTlXpZR//SSOm6mzLqtrWx6eabMWJitzoAQ4jTCFi0TDDy0BGHHoKuJmrGDbaFFzPihskyy33DLhthUcU1LtRIbwKalslIyZMV/KcF86AGZ/thLsnzpHElRlvfK1Ws9whmTKJPuf0BSb+msiyQMe0AeUOsP3J8itfZdNrmleNwSWf7vs2T6/S6Z+18r5IVpMVKxWlns/91dXnjnDZn7qNrXo3PljZet42bbexiqcfjdb8XdY66sWLdcXnpsujquS+b8x3J58+lUKX7797LUtzEghDR7wiLusLyDiTPCHl9++WW9DHFHhIwdlA3ZpVPwgSx4cYE1zZOZ90yRjI97KHF7TWYNtPI0iAck4+l0ibHWNCMnSepgZdOXHNY9hIahGoxH7fZ9jExMm6iXkh+dIQ/E6kUP5rj7DyuJt9i5RtYorXfNmCPJPr6o5Gnpkq5qmL+TYw+EOI2wiHvv3r21QAfzmyMyxsS3IwTSNAamTMhRNl9ni3u525rWyuG+s2T5J8tl7kQvOa4/tw2QxBq7ipEYGOlbyhou7n72H9Pe0wMYMihFz6uxjmujbOdu2ab6D9V+ftt0p8fHv6204U0QISSyCIu4w+0C/vjHP+p5IGCdQ9zxpKqx1E0Zs49aeXSJFBUVSdHeXbJu0XSJKciSJ+Ysk4LGGkhsFe1ncLYRCbL/6BBi9CsunFX/J8v054yf38/0QO2ef0JI8yIs4g6r28SrwyoPFeStT3y8JipaEh96SRbPThXJXSqL/vTDcEV4GoASiU4wfn4/0211j1oihEQ2YRtQRbw6rHFY4v4GTX0xT6eCJ598Us/rQ+KvMmVOmkjefy+SZXusRE0nie6rZgf9+MkLbT7sBhCKpd3YJAxMlgSpkPwd26wUQsgPgbCJO4TdvEIA4o5XDvjzwcPXjqgZCDvK+HtdQd1IlFnPzJLU8jxZ+vIym2gPkSFwYefmyBov0a+Q7OVu8USoN4yE3ol6fubCDQw+HDdRJvcXKXg7y6cxUyBy6E8rG2HQlxASaYRN3IEReBM9gxeJQeQxQdAHDBhQ9dZIk7dhwm4xeI7MzUiRitylsuBPRt5jZOK9LiX9eZI1a6Y8++ZKWbtqmTw7Y4osjpokjfIqmOREmaRma1//rSxdtVbcLy4V77fnNAFRqTLnaZckq/Na9Mup8viLy2TlX9Wxl1iRQ3+rEL5DjRDnEVZxB0a08ZIwRMhgHUJvBB0DquZVwFhvLFKenCuz+ldI3uuLxW2ZrjF3Z8qbf3DJpE77ZOXLz8q8V1ZK2cAX5M3nU8W8eqxBJLgkU+0/9comyZo/T5Zu8/ekbOMTk54p772zWFzDRfatXSTPzp0nWX8ului0ubJ88SzVoBFCnEbEfImJEEJI4xF2y50QQkjjQ3EnhBAHQnEnhBAHQnEnhBAHQnEnhBAHQnEnhBAHQnEnhBAHQnEnhBAHQnEnhBAHQnEnhBAHQnEnhBAHQnEnhBAHQnEnhBAHQnEnhBAHQnEnhBAHQnEnhBAHQnEnhBAHQnEnhBAHQnEnhBAHQnEnhBAHQnEnhBAHQnEnhBAHQnEnhBAHQnEnhBAHQnEnhBAHQnEnhBAHQnEnhBAHQnEnhBAHQnEnhBAHQnEnhBAHEpHiXvHXeTI6KUmS9LRAsq30UGhIWUIIcQqRJ+6V22TZ/6yVCmu1TjSkLCGEOIiIE/eSd98U99fWSh1pSFlCCHESkSXu5Wtl8avZ9bO8G1KWEEIcRgSJe4Vkv7JY1paLxKSnyyQrNTQaUpYQQpxHxIh7xeoX5LfvlqilVJn1xFRJ8CSHREPKEkKIE2nxvcJaruLChQvW0g1izzKZ+ctFkqcs75SM9+S9p8pkQVKGuPVGlywpypR0veyHhpS1s80tz/+lUAb+dKFMa/WhrPjoSyk9p9LbxMrwqY/Lz4Z1FDmRL39e9Yns+A4bRDr2TZNpP58sA9UmO2U7P5TVH2+Xw6cv6fVW7eNk4L0ueWRErF4nhJCmJvyWe2WBLHt5qRZnGTlHfvtkiic9FBpSNgAXC9zyhw/3S9xt98nk8QMl9lq57Fi5VD7YmS/u/14t+9uOkMn3T5a0xI5y7mCuuJfnCA5vKM3+o/xx5ZdS1qa/pKXfJ/dNGivxbcqktNQj9IQQciMIs7hXSPbCebIot0IkNlXmL5wrKVHWplppSNnAHD5wTaY88aT87O6xkjbFJXNnjBYl47J15Wo5MvQf5X/9Ugn7mDSZ/Ms5MrmvKnA0XzaXesqK7JfN+WUiXcbKr554RCbfMVbG3n2fPD7veXl8PK12QsiNI6ziXvDmE/Lbt4vVUoykzs6UWYM96aHQkLLBaDt8goyyu1kSh8mg9ljooyzx/jrJQ0cZPbiPmpdL2VFPShVXLsrZ69ayppV0jGlrLRNCSNMTNnGvyF4g817O06GLiY/+Xl77VaJnQwg0pGxt9OptF3DQTtpCl7v0kv4++ty2XTtrydBfxoyME7mwQ9yvumX99lK55CXyhBByYwiPuO9ZJk/8zi3a7k6bL4ufT1f2d4g0pGwItAp0RVq2shaCEz9ltjx5f7LEXiiU3FWvy0sLs8T9t0LxDMESQsiNISzRMtmZSZLxtrVSF8bNl+f6L5IX61l23YpZEtDGt0XLuLzGZUtl/auvS66kyeynJku8laoJWAZck7Ltn8r6T3Ol8LSy8oc9Is9OT7a2EUJI0xLmAVUn00riRkwW11OzZWxXkUu782WHtYUQQpqasFjuBe8ukJWF1opfjsvu5dmyTS+nSPrMIdIDi10nyj3dc+STepadkzFJ4nS6HxrFcj8n5yo6SkcvP9ElyV32kqwvHS6P/O5nQtudEHIjiIyHmGqQXb8HkTT1LNso4p4v7udXy5HeyTJiSD/p0uacnNi+Vb48fE7ixs+WJ6d4lSaEkCaDbplGpZ8kj4iX1icLJDf7Q/nwrzmy/WwnGX7/kzKbwk4IuYHQcieEEAdCy50QQhxIhFruhBBCGgItd0IIcSAUd0IIcSAUd0IIcSAUd0IIcSAUd0IIcSAUd0IIcSAUd0IIcSAUd0IIcSAUd0IIcSAUd0IIcSAUd0IIcSAUd0IIcSAUd0IIcSAUd0IIcSAUd9I44JODzz+vJ7fnA7YkJPBpxki+ZpFePxKI8Il79gJJSkqqMS3ItrZHOMVvzvRb/6ppxjIptvIGpSxPlv7LeEnKrHniJdlLZd5jU+WuMZ59jr7rYcl4JVtKKq0MhoPZsuAf75LROs9MWfBRibWhmm2vPiyjf7NWKqz1RkV/S7ZM0mYvlIULfb9B+8OkdF2WaujcShqbEnzf19Ogek9NfVzSHAiz5Z4q8z8skqIiz7TumVRxZzSlwOMTfI2z/+j23SV5WHKNKTHOsz1hcKIkehb9U1kmecuflYfvmylZfyuzEr0pyF0m2473kJQHXOKaliox57dJ9v/JkKnzbSJdmSeL/jlDNnSYLq+t/0B+f6/Iml/Pk6U7re1gz1LJejtO5v7bAxJjJTUm+bsKRbomy3B+JjYo+SuU8K5oAtlNmqYbVTNNSyqU1c9nyfpSa3uINFn9SFiIKLdM4mOZMn+ciDs38s33hEcXywfvf+A9rZwvkzph6ySZNXOSzueXg27JuHO8zHxxpbLuA8vtxGc2ymdr3pDFz2VK5n8sl8/+Z65qDkUqVufLJk8WkZxsWbk/VVz/NkdS+ydL+tMueTB2m2z60vQbSsT9mltk9jxxJVhJpMmJnzJXCa1LRlnrN5JRM6bJQCmXgu11VHfiKOhzb0RK3nUroVXC/6tfBBfSy5dFeqfLnKx1suKfh1iJNYluH20tWQwcIHq3sSJtdILimhJ71UfoM9Baj0qUhEHWsqJi9WLJqnDJ/JlB+xHEUYyS5CSR8jKK+w+Z8H1DFT73jGKZ/+FymWWESbtNMqT4mXWy/DFvMcrOTJKMt60VhWtJkWSmWysaT1llo1bz6BIpWuDJ5FteU7W9WJbNmCKLqsxhkVQ/dQhK5TbJeuRhWfr1JMn87I2QrWT47qe8nOdVV39cLi+Q7NdekBeWF8uQZ1aouiV7NujrWFJ9zEp1HVLVNZz9mSyfViDPTn9T4v73ezJ3pCd73cBg2moptNZA7PjZMneK5X8pXS9Zr+cqG9FG1zSZ/dRkqemhgX/4dcntNk0WzvC2Z+EOWH3SXs7Ke0qvaLyOC3yP7XNc+Lxf35sss38u8o7OFytps+fKZJVBb9toq3XAOvurm8I6tvjUSecVz/l5jhEn02C96zEJ+1UEAz3brGssP10oPzpmr1d1fQNTyzVFXe4p03WNU/v3HQupquNPRVY3Vv1qnKuffPr6FUiySo/7RNWzyEqvOiZpDCLKcs/OVOI8br5keokqhFcJ8/75ss7yzRctcdXwzRe/qWRdCb7x3xd9OF9S386QmW963BPpC5C+RFxqGQ2DzmMX9v5KXG1l62rnVny0Qtxfi8RMe1AebDT3h+fcMZg6dMxUmbeps7iy3pM3jLCDcani6rtB3P+5UgqOFkveH92yRtIl/ccxsuG1xZKfPrd+wq6jX1ZLmRKwKn/u7DSRja9X+2XjJ8tc7eNVyxBI5AkgkqFjEyzbca2hDA+omyVYnjyzJU1y5fVX16vSdgrknXdFHtF57MIO0bWV7WZl98OoocryOFUgO+w7PlqmG5XyvTtsx8uXAiVSA4f6kaYUlz6Wvk5V/nFvESv8y/PyjjxibUPecsl9vb4Do566xMapE44fLsld1f53+e4pXz5VQh07/kcyqpHqp332toF1TLPHi8rnL9oG5Z+XgqEmr/o7dC2U1TX+hqS+hFnc82TRfdURJhlvp8r852Z5C2u2W1nUPunpmbLkURH3iuqIlMTHlntb8gNniUvlyTtcW8xKsZQoi92VZiusyno3MLVRImvWYpAzQabf35iDljGSOM4lrpnTJX1cosQVbpClC+fJb98usLYrYtJlflamJBdnydQ7p8jTn3eXOUt/L66DS2XRF+q6PT5ANrwy04q4GS9Tf+OWAt9omxoogc0prGktQ8x/qsSuKKfOg3WhUyplymL3Ekl1XFdVPTx1gwhVW6LxMvnnaRJ7Klc+tYuI2k/yz70bm9IyJctJyTbhUmVnBGmQUpJr+K8xgBybNFAdr6xaiLYVqB7OQEmub6SQOh/7tR51jzoftceCOocgonFUvS3V2D6i96fOb6Kfv5mub6wkjwh45t7UVj9ljecU1bTSMfaARqMwp6Zo4/7y+huinr4NKak3ERUtU/ThRMmB2NvCArNzlUX+qMvmuvGQ2CdVZFNJlbh7qLZ0PY2FStp/2CePL4mSgEHcjJmyzLdnGiqF6yX7b2o++EF1g3qSGoc4mZSRKZnPvSRLVqyTjZ+8JA/EFMjazBe8omGih7lk8fsb9TXc+P5imZVSLFnKAhr11Fzps+ppeVxZrw9mrZN1/2+6dM5ZIPNezbNKBqB0hxScCvDD9yN2jUu8xMHS/EuAaA+rbmn3+FjI8XHaui87Zi+k0nxOIT4uVgndaslaF2r9ff3XsIrVtbknWe29WtxKj5Wp3ktc4EaiFmpY/H7PJwDqfKrDIK1ej70HFaCBkqSJtbh9qqmtfqXbC6Q8QMSU396Pv4blpjiVWi5lR6110iAia0BVWczLl7hE3nZbQlssh/er2dsZVYJtJu2ntgGfelLSFMmZuK6qsYB1XzuJMmsF8lb3IowrJ1QKPl6v+iDKSrx7kjRpiHff6TI9HT4fezRMTQreyBL3LfNk/r0lsv7TPEn4mbLA0xIlMW2uzP5ZghTnbFJ7CILldggPyoJ7ynT7PYLlJcS6btXbqifvsQGNH7HVUSyq91EO9xLKheAG0OJUVOBxQcDi1SLmEX2Pu6NUduwtl9hbh9db3BtElSvFmnz871UNVJUbKYgLqZ7oHhGJKCIvWuaWBB3u5yFR+vRXMww2Guvea8oU7UzJXuBx6aheQJ0GQW14fPJqUo1L3stT/D5U5J9iydsEqVT1vr1JpV3Ttk0tTp8StyxZLjLncbiHSqRsi0ifrj2sjSI9uvYR2VMh/iPrLbQF1dgoizyIb9uXUTMsoTJCbPz8um7o/tvEzDZ5uZECYfmYFy6cJgNP5crrtT30o4/psdK1S8YScS36J8ukNFhPJ0LQbhRjPTfUheQH3SMiEUXkifu3JdoKNmj3y9t5UvfI92zJ842OCYX0TP0wVe3uHIuDG0QZwqqXOUnGpXmSGgW137WbfCT44EpZ8Vf421Nk3Fh/jViFrP3PLDk7c77lxoqTmMEiZ85VP5d6/NRhkXEJ3uMavugudwDXS119tb5ADK1FDx4rMiBKiGePV8JhygWrW50ZJa7Z8B2XSdCoQWtQsuzYeo9Lxpw7RB+CuV31JiL9IS59Drhu+dZ4yo+8BkwbSnzPuID+cj7kFh4iS9wLl8nMDG8fe+JjLnGJWzJ8H+dX1npVtIy29vMk5/PqHDryxlquxvKvez0klS0LvKz0YtmQo5qX/n2CC6BFxbbdnsZo4ii/P5bi5Y/L+KTRMvXFDXV79P9ysaycMUXump4hz764QJ7NeFgtPytrD8ZI8szHxDXMymej4qNFsvhbl8x93ETTpMiku1Ok4O0sycotluLcLHn9zxWSfu/kWs5NiZ5lMXu5RBDC9hcIwyMh+2rteHyvufKObZ/5K3zdKfni9npK0uPykG7GxTJKfqTEHnXzjsAolfUranex5K/wttK1r1g1F76+eW/iZfit6ph7C6TMLlJGMPeWheSS8fj7LffODcecQ07AXkaD6qcaYY8rzXusBNFJqzHQ6jOwTZqeMIu7d7RM0n2LJBFhil7x3umSWbRO5ssimWLyYVqRIC6TzfLVa3eKtT0vzZ/PPVFmzYBP3/LhG1H38ulbYZFBYs7t7C70KExy74TGfbQ/cbK4/nWc9KnYJiuXu2VldolED8KDT+/Je8+l1zxWxQbJejVfJj81V1KirDRFypOLZXH6JVkzd4pM+c16if75K/L7R0OI1YTrwoQ+Gr+2FX4YkuvDH5YVXuXvVhNC4XQInh1/A4Q2P7LxmyM8z56vbGgoAoJH86vLVcWiW1sDET8iWVnpqpHxEnFLMFV6XM/ajxw/ZaKoWlvHv/Hvf9HHV3UN1MtoaP3gSjOhj97Xt7Z4fdIUhO8hJkLIDab6gSS+3M35RJ7PnRDSJJSuy1F2eeMOpJLIheJOyA8C2xOpVgpxNnTLEOJoqt8PVOOJY+JoKO6EEOJA6JYhhBAHQnEnhBAHQnEnhBAHQnEnhBAHQnEnhBAHQnEnhBAHQnEnhBAH4lfcW7RoYS0RQghpjvgV95YtadATQkhzhuJOCCEOxK+KR0XZXghOCCGk2RHQcm/VqpW1RgghpLkR0P9CcSeEkOZLQHGH9d6mTRtrjRBCSHMi6MgprPfWrVtba4QQQpoLQcUdQNxpwRNCSPPC78c6/HH9+nW5du2angghhEQ2IYu7ASJfWVmp55jqWJwQQsgNoM7iTgghJPKp1edOCCGk+UFxJ4QQB0JxJ4QQB0JxJ4QQB0JxJ4QQB0JxJ4QQB0JxJ4QQB0JxJ4QQB0JxJ4QQB0JxJ4QQB0JxJ4QQB0JxJ4QQB0JxJ4QQB0JxJ4QQB0JxJ4QQB0JxJ4QQB0JxJ4QQB0JxJ4QQB0JxJ4QQB0JxJ4QQB0JxJ4QQB0JxJ4QQB0JxJ4QQB0JxJ4QQB0JxJ4QQB0JxJ4QQB0JxJ4QQB0JxJ4QQB0JxJ4QQB0JxJ4QQB0JxJ4QQB0JxJ4QQB0JxJ4QQB0JxJ4QQB0JxJ4QQB0JxJ4QQB0JxJ4QQB0JxJ4QQB0JxJ4QQB0JxJ4QQB0JxJ4QQBxIx4r569Wo5duyYXv7444/1BJCGbefOndPrhBBCaicixB0CDvE24n7+/Hk9AbPNrBNCCKmdFt8rrOWwsH//ftmxY4cW8I4dO0qHDh20oJtliDq29ezZUxITE6V///5WSUIIIYEIq7hD2Ddu3KiFvDaMW+bHP/6xFvrauHDhgnz++edy4sQJuf3222XQoEHWlsCgPl999ZV07txZJkyYIO3bt7e2EEJI8yIs4m7cLLDYYaW7XC5rS2BQBr53CPvw4cO1VR+sUbCLe+/evSUtLU3atGljba3JlStXJDc3V7777jvp3r07xZ0Q0qwJi8/9k08+0QOmxv1igIDDerZPxg9v8mEdZbGPUEBjcPr0aTl+/LiV4h9sr6io0FY7IYQ0d8Ii7rC8MdmFHUIOyxxuGvtkGgEDyqBsamqqlRKc6OhoXaakpESuX79upXqDdGyPiYmRrl27WqmEENJ8iXpBYS3fMGJjY7VFffjwYbl69arceuutUl5erteN8GPwFKIMYb/pppt0GbhxMB8/frxXw+AP7PfgwYPSqVMnXebQoUPSrVs3v+Vgte/Zs0cP1qLcxYsXpW/fvtK6dWsrh8i1a9ekqKhINm/eLF9++aVehqXfpUsXL3dPQUGBbpTQSBw5ckTy8vJ0GZwHGg8zYIw0TN98841cvnxZu4KioqKsvVRz9OhR2bJli2zdulXy8/PlwIED2uWE49rrh7RPP/1UTp06pc8XYweoB84Fxzl79qx2T/mCRi07O1sfG3UghDiDsFjuEDx7XLsdiL6Z/AkxfPUoi32ECkStVatW2p/uD6S3bdtWixvE0BdY9l9//bXs2rVL54H/Ho0PGgUIKITTl3379unGCg1XcnKydjlBcNFDgVBDnDHQGxcXJ7t379b7toNjIi0nJ0eL/5AhQ3Sj1qNHD73vv//9736Pi3Lbt2/Xx0FD1a5dO11niL6/cFKcAxqc+Ph4K4UQ4gTCIu4Qk/piombMPBQgpBBRNCawtu1g3fQOYOX7A2IKK/yOO+6QMWPGSL9+/WTkyJEybtw43RjAircD0YWwIv+AAQNk1KhRMmLECJ0OgYfgIw09BeyvV69eug528YXFDqsejQgihFAG+eGOwoS8aBR8XU3oASHtwQcf1APVQ4cO1Q3CmTNn5OTJk1YuD9gHxB09GvQqCCHOIWw+92nTpmnr3BeInO9gqh2UQVkIXqi0bNlSC/KlS5ektLTUSvUAtwRcLnDDtGjRwkqtBlE0sOwh/r71hesFwogGAvns9OnTx8tdA+sZjQcaGbt7xPQYYJ2bXgPEGW4kROsMHDhQ198OysPShjXu28jhXAYPHuwl1siLdTQYdiDsEHg0LoQQZxEWcYdow39ut1SNNY90M5haXFys0+yWPsogD8S/LkCEIaKwwI0Qw08N4Ybgwrr3B46HqbCwUNxut9f0zjvvyLfffqsbDYiqASLu2wuAWwgijXPBIK8dbLMDoYeVj334C8fEflBf1N9X3CHivseGewt+eLtrBg0I/g5ooGDZE0KcRVjEHREwEGi7MMEqhjUOv7J98n1oCWVQFlNdgIAmJCRogTPWO8QNVjfSfa1jQ2VlpZ6SkpK0m8XfBNeHbwy9v14ACJRuB48e4JjYp6/wGyD6vo0KgI/dPtAKcG44Rwg7rHWA64hrgQYvWPw/IaR5EhZxN24VI9pG5LEOv7J98pcHZbGPugLXCuLY4fKAMMIlU5vlCjHGBIG85ZZb/E4QzkAiXF9wTPQwfMXbAOseAh+qMBu/Oho0WO14uAsNiL8IGkJI8ycs4g43AUQavneINqJffF0evhPyAAwwGsGvK7Bq4QuHsMGtA8sVvvZgAgkBRTm4SSCoNwLUB+4bHBOuF18gzhgcRb38uW38gbxo3DDgisFVuKdgtQdyRxFCmjdhEXcDBAyuFyPWRvQNWDbhkJgjL6z5hoDBRQxiIh4dwgjBCwZEESJYVlZWNQZgB9Y/BLMxQS8AjZDx9UPM7WCcAK4l1L0uUS7ooaA3gJ4LntpF+UDuKEJI8yasv2wINsQaFjzAMlwuSMeEZSPmCP9rqLADiCEaDbhlIG6hWL4IZ4RbY+fOnfp9NQiNhOjioSE8WAT3RmMDcUeEDxoUjFHs3btX9zY2bdqkH0pCfRD7XhdQBm4oDAJjULe+PSBCSOQTEWabiYYxYoO5fRlCb4+YaSjwM8MaD9XfjOgTvEgMYYmw0iGwEHo81Yk4deyrsYFFjVj4sWPH6uOYKCK4kjCAi15MXQdC0SNAgwZ3D4Q+VJcOIaT5Efb3uZMbCx6MgkvK7g4jhDgPOlx/QMDfjoFUuGYwEUKcC8X9BwSEHW4d+PN9Y+EJIc6CbhmHg1BKDMoibh5zWOx4Jw7FnRBnQ8v9BwAsdvjaMZiKN1FS2AlxPrTcCSHEgdByJ4QQB0JxJ4QQB0JxJ4QQB0JxJ4QQB0JxJ4QQB0JxJ4QQB0JxJ4QQB0JxJ4QQB0JxJ4QQB0JxJ4QQB0JxJ4QQB0JxJ4QQB0JxJ4QQB0JxJ4QQB0JxJ4QQB0JxJ4QQB0JxJ4QQB0JxJ4QQB0JxJ4QQB0JxJ4QQB0JxJ4QQB0JxJ4QQB0JxJ4QQB0JxJ4QQB0JxJ4QQB9Lie4W1HBEcP35cdu3aJWfPnpW0tDTp3r27taUmqHpJSYkUFxdLeXm5nD9/Xjp06CA9evSQ5ORkiY2NtXKGDvaD/aEeqMPVq1f1PrGvgQMHSnx8vLRo0cLK7c21a9fk0KFDcvDgQTl9+rSuT5s2baRz587Sp08fGTBggF4nhJCmJiLEHaJ45MgRKSoqktLSUp3WqVOnoOJ+5coV2bp1qxZif0BEhw0bJoMHD7ZSaufEiROSm5urRd0frVu31gKdkpIiLVt6d3qOHTsmX3/9tZSVlVkpNbnppptk7Nix+twIIaQpCau4X758Wb766ist7BBrO8HE/fr165Kfny979+7V67CsIZwQ33PnzmmhhcXdrl07ue2226Rv3746X21A3Ddu3Fhl/aMOFRUVusExoo1jQNxhxdspKCjQdcJ21BnWOrDXB6BxGDNmTI3GwR/oAeDY0dHRuieCeTBwDffs2SMXL17UPQz7eeNaoTdhB3Xo0qWL3HzzzdK2bVsrlRDiBKJeUFjLNxyIEax1WMoQxV69emlXC9IhZBCd9u3bW7mr+e6777TrBhY/hBSNAMQW5W+55RYt6idPntQiV1lZKb1795aoqCirdGDQaPTs2VNb/JhD+DDv37+/boiwT+QxdbULNMQf7po77rhDCzG2m/rgHLAd9UV5NByoY22cOXNGNw44B4hvx44drS3+wTHQQAE0TKi/Aem4rmh0UB8cH3XBtYcrCm6nVq1aWbkJIc2dsA+own1y6623Snp6utx+++21WqcAlv6lS5f0cr9+/aRr16562QCLFQIKIMhG8GoD4mnK2YGI2xsaiK1vhwdCPmHCBL9+fjQupo7ww2MKFTRKaExwDjhuILANeZA/UK8A23C90BBiGjlypLbw0XCFeo0IIc2DsIo7xPLuu+/WrhOIYqCBSjtwb8AiB7BOfYUdwAKNi4vTy2gEYJk2FAijsf4x960rrORAli/E1pRF/WEx1wW4iS5cuBBwLABgG/KEeh0NyI+6BWs4CCHNj7Bb7k2F3Z1TF0s5EPB9G3FFw1EXFwbE3IgnGqRQXDJ2jACjDv6GSJCGbbDwja8/VNAgoH5oQAghzqHZiTusUmMFQ2xPnTqll32xDx7C0jcDmnUBookBVUTlmMFbuGfg2qgLR48eraonxD0mJkYvhwr87SgD/7u/hgpp2GZ87KFY4RB0uGLg4kLj4a8HRAhpvjQ7cYfFbBciRJRg4NEOolOQXh9gya5bt07cbre89dZbsmbNGh2BgrGAUaNGyfjx4+sUqw6XEBoGuIdgWSckJIQ0rmAHDRp6C2hs/IVamsFc44oKBBq4bdu2yaZNm2Tz5s06jBQNAiJ4AvnpCSHNk2b5i4b1jCgWgIeNPvnkEx3CuGXLFh2nnpOTU0PwGwJEGROEHxZyqGAwF0JqBBmRM4i8qQ9wt8DqR48EA6AGM6aA7bVF00DAIeZoHDHBdYXrt2PHjqpxDEKIM2iW4g4RQ6SHcUNAmPbv368t5AMHDmghhjVqgFsDaaEAq3zo0KE6pBGWOvYDEYRbBfv/7LPPQuoV4EnVL774Qgs8gLAjPr6+4YbGMkc4o32AGK4VhFjWZrUDuLPs0TII+USkEix6XD8OqhLiHJptXxxihkgbCDF8xgADlRDRSZMm6dBEQ6jCDiC+cJ1gP4hXHzdunNx///06ogf7h38bDyzBF+8P+LIRgw+LHWMCODYEFPtp6KsHYJ2jDiZmHqKMRgeND6z6+oAGEhMaSFrvhDiHZu1ohajBgr/vvvvE5XLJQw89pC1uiL2JbAHGwq8vsJph6SImHASKnYeww6e9e/dubWEjAmX06NF6qq/FbgcNBdwpcA/BPQPXEwQZD3KZQeb6gEYH/nzUnxDiDBw5igZhhS8ZQNiNZd8Q4K+2hxmah6gMEEa8fgCDr7CocVwMvsKtg8ahsUCPBWKM88MEl1NDI11wvVBHDqoS4hwc+WtGeJ/xddvf89IQIN52V4zvu1jwdkrji4cA45UIZtC3MUGkDRoO9ExQn27dujXI3YMeACa4e+oaf08IiVyapbhDaO0RI3bw3pmdO3dqyxpuEfjO7RYpol02bNggq1atqopdB7C2Dx8+rOf+wEAtGg2AxsLu6oH/G8IOFwlEHz72xugtBAKNB87JuGlCBQOmOI/CwkI94TrhGmBfeCVxQ1w7hJDIIqLe5w5f8ueff6792RggDPRWSAgwQh8xuInteMAHYm584dgO4UM0CAZF7SDsDxOAQOMYEGKzTwxQ4g2TEFD4yf29FdJ3v4heQQgmLGCIOwZzg1nTOK49micQaDDgehk0aJDXg0/4k0GUUb+kpCQr1QPqifh1vhWSkB82zVrcYWn7A+6FIUOGaFH09XfXJu6B9gkg2BB1TPbeAOob7D3wvmBwFq/9JYSQpqJZumXgPoBVCovThAAaFwVCIydPnqxdI/4GMvEQEUId0QDAejbuE5QfMWKELocGxVje9v3+5Cc/0XO7sBNCSCQSUZY7IYSQxoEmKCGEOBCKOyGEOBCKOyGEOBCKOyGEOBCKOyGEOBCKOyGEOBCKOyGEOBCKOyGEOBCKOyGEOBCKOyGEOJBmI+5ll2p+9Z8QQoh/IlbcD5771kvQPz+a47VecLrAWiKEEOJLxIp72aUTsuXEFmvNGwj9wXOerx4RQgipScSKe3IXz8cwfC30C9cuaAv+tu63WSmEEEJ8iehX/kLIQftW7bWgx7WN80ojJBj4/CE+WI4vduGTi4MHD9ZfryK1Yz5Bie8bRCKRXr9IIKLEHe6W7krAjdXeWBw6dEh/4cmXCRMm6A9+NCdKzpfo3sy5a2f15/Zat2wjo7qPkoT2CVYOb74+9bUUV+yTzm06y4SbJkoblT8Q9n2rW0O6tOkiI7uOlK7R3t9pDSXfuWvnZOuJLXLy8klp2SJK+nXsJ0Njh0qUWjbsPbNXDp07KHf2nCDtWjXux7mNsONjKxQAD/hk5DfffKO/K4zPSAajIeKJz0Pi05S+JCYm1nrcUKG4105Y3TKwwiESmBt3yx617uuKaQzwxaYpU6aIy+XS06hRo7TgQ/ibAnwycN26dY26/+2ntsvmE19qUW3fqoNuCL9X/65UXrFyeFN+pVwOnw/82UA7+1QDsPnEZr3vjq07SduotlJ+uVw2leXJmStnrFyh5bt2/Zp8VbZZzqu/aWrceEns1F/2n90vxWeL9XZw5sppnTao862NLuwA1x/f1e3WrZuVQvwBwd+6daueNyZoVFNSUmTcuHF6grDj274Q/rrQVPX7IRBWcS+7dFyLeY6y2MG9CT/R80ACD8ved5AV+T4q+Ug3DHUBH5bGF/+PHj1qpUQ2JRdK5IASQ4jpXfF3y5TeU2SissQfvPlB6dux+kPYhsrvK2V3+S65eh3CX/Nzg3bQsBZWFOrl4bEjJL1XuvxE/S0SYxLl4rVLVX+LUPOdunJKKq6elVuVcMe3j9cC3ql1Rzl28ZjeDvYoqx0Wf58OfawU0tTgI+u33357o1nPdQHHxDeLIdLoVZGmJ6ziHte2h+VHP1+rwJvQSN8QSeRD+bqKe3Pi+vfXZX9FsVxXVnpylyES28bz3VfQQv2zuzoMB84ekBOXT0jv9r0lqmXN7XYqrlbIFdUIdFQCfHPHajfVLR1vkTYtW+seAIQ91Hyob1SLllXjInAFRatGyYCG6rSy9od0SZaWKh/5YYBe1JUrV6SystJKIU1J1AsKa/mGAhE4r0QZwoAuOqYjF47o9aSYJNX9L5ITlmCjATDbQV+Vp0OrDnofyAeQB5M/zpw5oy10+Nfbt/cIzuXLl3U3ERaFryWzefNm+eyzz2THjh16gsXRuXNna6uny//pp5/Kpk2bqvLABdC7d2+9HeW/+OILnQ/dUPv2q1ev6m2YTFkM8gWzps5cPSOFZwqlTVQbJYhDpLUS0mCcuHRC8k/ma8u4X6f+8t2F77TA4rr5awjgH4fgYr+4/ibPte+v6ZDTa99flZ7temoXUKj5Dp8vke5tu+s6oEHYf7ZY1b+19FANev7Jrapx6CsJHfyPEwQDVt/u3bvlwIEDUlJSoqdz587pj5ob4I89fPiwHpMoLy/XeaKjo/Wgqi/4++A+gPDYB1vLysqkoKBAu/NQ1qTt3Lmz6rjHjh3zKod7avv27doVF2w7XBao3759+6rq7ls2WJ391c1cl+PHj+tjmo+4Iy+uB9JwP+J+w8ffUQ75jxw5ItevX9f5cEwIL+73EydO6PLIizKor317MPB7w7F69OjhdU2Rhm1Ix7nDL2+vKzDXAXMcrzHqF8o9Y//bYN+4ZsiHOtqvc3MibOIO/zH8twDWaDCBh4ibOTDiXuTTANRF3Ldt26bnI0eOlKgoj0gZ4cXNcO+992qfIW4U+OYxNwJfVFSkhfrOO++U4cOHS69evfSPDTchRBrbBgwYoG/I2267Teczwr5x40Zp166d3r8pixsLN3kgYIFjEBMW83WplI3H82RX+U59/pcrL+vzNhbwpcpL2if+vco5pvtY7Z6BIAcTd4gzfPNX1L5i2sTowVdw6NwhOXLxiLRo0UL3AOASCiUfBlZL1d8Rg6kQ90PnD8nRi0dlUMwg3dBcVnVM6ZpSZ6sdXfpdu3bp64e/W0JCgr7e3333nZw8ebJKKPCjhQvi1KlT0r9/fxk0aJBfkQTBhOj06dN6X/hh42/57bff6ogb+I9xbDTYOA7KoW64B1CfoUOH6u1IQ91QL+SB8EB8ISw9e/bU9TLCjvPCsilrxMRfvbEv1AfnaoQM9xaECHPcp6Y8RA8CeNNNN+nj4DqhDAQLdUD9cZ4YmMR5mf1B4JCO6zBs2DD928E+0fhgHuh6gkDXFHXBPYJ0zHEMe10BrhfKoi74bTS0fqHeM+Zvg/3i2pi/w9mzZ7V2mL9hcyJsfeI4ZdXBnQKL79tz38pt3W/XImVcNP5cMr4YYQ8F/JEwwOl2u/WEH8KQIcoKVi21AWm4YezpuGkGDhyoW338cEBycrJON+BHGR8fr3+0wUD5ixcv6h+aAWWx/2BgwPS6Emm4Rfae+Ub7ryGslUqU0UDuVEIPIORblVWMfAOVkBrxrQ0IcHy7eF3+qxNfybrv1ulpZ/kO7fYxhJoPDcnt6u8JNpRukOKKYt3j6NCqvRb3wV2SZc+ZPbL60GpZ9e0q+fhItpxVda4NWHH44dkjJPBDxvgJhBZWelMBEWnbtm2VcQDQcBhhQt2w3fTeQL9+/fTcd1wH+ew9NYguiI2tdrdhuz2PHSNedv81lmGk4L41+8McYaDBDIdgYF+4N42ooX44LkSxrqCHhN9g37599f6wL1wHXDcDzgXngWOY6xqMUOpX13sGjQfqaEADA6MN9WpuhE3cYUXiRx5I4CHojQn+wPZombS0NMnNzdUuFAN+hBBpCK6djh07alE24g6wnJOTU9VYFBYW1sjjC25GWBDoNcBCqCsQ0LHKGseA6j29fizDYodrCwi9HfRqIPLHlIXcv1N/GRAzwCoVGindUlSZJGXZt5LzV89pv/nwrsN1JEtLdVzjCgo1X2fVEPy4V7o8dMtDetAXddp9erduHM6pcsVn9+ne2fge43XjtUU1SoiyCUQwoYLgQijqIzqhgmPg+HAn+GLqhkbbbt1BbGE1476wg3vAjhEy9AiNMNcGroPdf41zN4JproPZVyhC6Q9fkcW54R7GPW4alUAgD+5zuC4x4X5HTxWWOMC+sIzrZuqJBhTnBEENhdrqV597xjcv9g/LHnVrboRN3CHeiGf3FXiE+N0IIOBwu8Bax42HGwI/Qoi0EWwz5efnW6U8oEF49913tWVlGovarG+AG2/ixIm6ATG9CHTla8PjvmihLXH4tA2IRIGVDJ/28UvHtesGfmbEta/69s96yj32hVQq0USY4tpDa+Tvx/5ulfYG7poRXUfI1JunKkH+mY6C6RbdXa4q4W2lBLtdlEeQQs3nC8IeL6t6Duo8SDdGMa07azcNzuGWTv3k3JWz2vcfCPxQYUGFC/yt0WOD9QmxQnieESVTN/jujZhh2rJlixYXX+zWP4CAjBgxQjcERhDhdgmGEUlYlDg+rFCIO8TJCCasUuzT93g3Atzr9lDI0aNH12hkUF+7VdzY9Q33PRNuwiLuEHaENCKE0S7wiHxpbIs9GLiJcDMBY1VDpI1g2ydY/cgPnx4aBKzjx14fxowZo/c5YcIE3XDYew/+6NS6k7KIWynLVlkk39e0mIzFjAHX6KhorwkPOWmbXzUQbdQ6olpCBX7yK+qYiM4J9kRwbfkwcI4Y9wGdBqgGoJXKe1nXF8sADUKlXNfjBYEwFlRjUxchgaAilBDjKLhvMJAHYTJ1g0/YiJl9CuVBG1id8B0jPxr/2mLCTa8AlifqgHWcC+qIZQg80rFu701EEqgbetQ4B+OSacz6NtU901wIy5kjBBIWOgTdCHygwVB/mLx2Pzz8uXXFdAMNcL9gEK6uXTDkR7m6Ar89HqaqzZ3TWVm5ndrE6NhxDF4aSi+Uaqsdgoprgrjz+/s84DWNiRujQyFjVAMxufdkGRs3zirtzcVrF3WUiwGDoegBoGw/ZVkbQs1nZ8/pPdJR/b0Rj9+qRStt4cNvD5cOuFh5UadjkDwQdjHzBdcflqu/7ncowLozVrjB33EMEB8YARAOlAtWt/oAny98v77uHDuoA4QQ9w2sfCOKqAsm1AUuG1jHkYzpacAlit+ifTyqoTTlPdMcCIu4Q4zwAI5d4EONU4evHvjmN+mhAlcMusB2HzseywZfffWVl9jCWscEjKWHkXUDRuN9feimJ2AfTMMNBWvPYH6YyIf8gYCFe2vMrdolsqN8u3xy5GOvgUwMnsI9EyoYvMQ1X3NojXbngG8qvpEPDn0gn5V+pvedc3SDXFYWNl4bcFO76h9cqPkMaIBwjCHWqwfgYkI+PNWKQVVs//bsAR02iR5KICBcED24Rcyj5wDiCl81LMBAA5DBgChCpGElGz8y/iYYWLeDsDjjPgBYRqMA6xB1gyihjK+1vX///hoNhy/YF/ZvQH4Inq9v3hcINwQRkxFxI/rYJ4Sttp6JcZU05WB0MFBXgN+Pv4HUhtSvqe6Z5kLYQiHRLUfYnGcwsKZfMhC92vfSVioiZexx70gPBEKz8MfEYBjEFROW0QW2u1YgsLgZELKFkEWTFz9i5IMlgB8LJvhFzXZE1+AmhDjgqVdjPUE04HZBHlgJCAFDQ2DKIvYWogA3TW1A+LpHd9dPf55VFvzV61d1Gixx+K0DYWLY7aGQcIscOn9YW86INYfFDNfJqcun9GAn4tU7tuokI7umyMDO3mMJoeYD6FVsPbFVHaO33NyhOgIhNjpWh0MWn90vhy8clq5qfXS30VVumkDgGqMhRhgbGlsIIhpPhPQh9NQOfsCw2GABQzQCAQFAjw0x6dgv9olxC0S9QKxxPBwX4mKPk4Z4IpTRiBOOgWXUy8RcY0KasQ5NuB3C/+x1Ql0RZmnKmXOyR234A/cY6oX7DIOQxgWBOcQSA4a45wz+rgnOH0YGXI04NuqI7cZY8Q0uQDp+DxBFczxfAoVC+sMcH9ca19z3b9XQ+oV6zwT625h0/OZx3OZE2F8chigPhD6GIvAQdbz8CpiPd8D6x+t/6+LWIYREDujtoLHkWzsbl7CPNthdNMHAdiPsiIE3bhkKOyHNF/QmYG2jh0Nhb1wi5pW/sOARComIGTsQdQzEmdcAQ9QRaYM0iDqFnZDmC6x2iDueCDX+ddI4ROTHOiD08O0CX/GGuFPQCWneQNThR8c4F4W9aYjoLzERQgipH2H3uRNCCGl8KO6EEOJAKO6EEOJAKO6EEOJAKO6EEOJAKO6EEOJAKO6EEOJAKO6EEOJAKO6EEOJAKO6EEOJAKO6EEOJAKO6EEOJAKO6EEOJAKO6EEOI4RP4/6ASdE4u0S/0AAAAASUVORK5CYII=;" vertex="1" parent="1">
          <mxGeometry x="440" y="426" width="162.71" height="128" as="geometry" />
        </mxCell>
        <mxCell id="7C21yTUGDn6yJx2N35cv-8" value="" style="shape=image;verticalLabelPosition=bottom;labelBackgroundColor=default;verticalAlign=top;aspect=fixed;imageAspect=0;image=data:image/png,iVBORw0KGgoAAAANSUhEUgAAAWgAAAEpCAYAAAC+4bgcAAAAAXNSR0IArs4c6QAAAARnQU1BAACxjwv8YQUAAAAJcEhZcwAADsMAAA7DAcdvqGQAAD1WSURBVHhe7Z0LeBXVvfZfINwhEEKQQJBIIEi4KBeVgApqC7SKpaX2wom256D1U0qfejlfqadHwHNq8XxV+shRHy+cekmpPUpLS20hYgVbbspFuQQJBEEuAQIEEq7h4jfv2rOS2Tv7FpKwB3h/eVb2zJq1ZtbMnv2u//zXf2YafeGAGJw5cwaVlZXunBBCiAtBY/czIufOnZM4CyFEAogp0LSehRBCXHiiCjStZwm0EEIkhqgCffbsWXdKCCHEhSamBS2EECIxSKCFEMKnRBXoOCLwhBBCNBBRBVoIIUTikEALIYRPkUALIYRPkUALIYRPkUALIYRPkUALIYRPkUALIYRPkUALIYRPkUALIYRPkUALIYRPkUALIYRPkUALIYRPifpOwuPHj7tTF45du3bh97//vUmczsjIMPk33HADvvGNb5hPIYS4HPCNQFOMp0yZghUrVph5K8z8tHmE8/n5+VXLhRDiUsUXLo6VK1di5MiRRoiHDh2K3/zmN1i8eLFJFOOtW7eaaS6jkOfl5Zk6lx7FyL9/GAbfOR2Ly90sIcRlS8IFmoL7T//0T2b6Rz/6kRFk68aYO3cunn32WTNtLWeWYZ2f/OQn5jM2BZjeqxd6haTBt3wLk56ej+JTbjEhhPAZCXdx0Bqm5UyrOdS/TKua0Hr2QuGmQNOipmhHhwI9CfnXjkLegE5u3insX7sYBetLkdznQfz3Hx5CbhN30QWgfOlsTPv1W2j3rQWYOsrNFEKIEBJqQdNNYd0atRn8Gz9+vKnDunG7OnK+hqn/PtVNT+K537+PPz6SC2x6Hv/zm3gs8fqjdNMSzF9S7M4JIUR4EirQjNQgM2bMMJ+1wdax66g9zZFzXx5GO1OLiwsDWUII4SMSbkGT84nIsHXqNFjYhDIdiuuznlrgznsJt6wYs+928u6ejeKzu1Dw9CR8bVjAzz1s9H2Y/lePdV40G/c4+WOeWm5m8ycFyvXqNd1ZM3HXVTVPPOs/VYi3fnYPbrmeZYbha/+aj0LjQy/H2tcfwz23DDbrG3zLPcHb9VK6HPk/uw9j3DbSF//wK8tRetZdLoTwDQkVaA7y0VURi0iDgfHUjcqu/eCaM1q3DczXiXIsfmISnivqhDsfeQZP/uQu9KxYjPwf3YsZS90inUfiX2Y+g6nfzjGzI//PM3jGmX9m5p0I5ERjF/Lvn4T5GIEHH5+KB29Nw65503H3z97C8ld+iHt/U4qB903DM9MfxKBmjgh7t2spczqYvHswc+kpDPqXJ53tTsXEIS2w4ql7cPcTBc4eCCH8RMKjOKLBG1MozhxItNEcXrgsvkiOMJwtRcHL+Vickou8cbluZh1Y8TzewiS88aIjeuPH4q57n8Trzz+IgY4F/Na8+QHxS87CyDvGIjeznamS0X8sxjrzY+8YiJjXECvyUTz0Obz+nxNx1x15eOjFNzBtXDLK5zmW80sdMe3Nl/HQBGddEx7Cy0+52y3wWvqOwP/sp8jv9BDeWPA6nrz3Lme7eXjw/72OVx7JRfGcX+D5UEEXQiSUhAo0LeBoAsuQuqeeespMU6AZueGFdeN2jxT+EdP/Y7qbHsY9XxqDSe92cgTqvzEx2y1TJ8Zi0iOjkOzOGa4didw+jm29a6ex1OuGI/oTvHZ2MkYMH2GmcibcjbEpZjKA3e62nY5Mu6z/E/7k6HXe3Q8iJ8SvkzNuFEY5LVyzXr54IfxEQgW6a9euRmSj+ZEZsWHjnxleZwXd1ok7+uPjAuS/nu+m+djZfSJeX/Q6HhoRJKnnz5CeyKqxqmQk01heVVp3gQ6z/uRWAUu8b++B5rMad7seStdvxFrHjq/2e3vSTQGf99qSuncjQoj6I6ECTRcGmTVrlvmMBK1kCjTvKLQWs61j1xGTCc9hy5Yt2PLpBiyYcReSC2fihw/ORmF9DY4lNQ8z4FiPRFl/8zhiuMuPVzj/c3DXv1u/d5g0NrYnXAhx4UioQNP6tfHMtI7jhWXPJ37a0KQ5ssY/iWceyAWWPo8Zv748LusDIr4LzTOs3ztMGlL7aBohRMOR8EFCxjPTKqZFHG4gMBR7FyGZPHmy+Twfsv55Kh4cDix/aQZmb3IzDW3RvLvzsSOM37jI49OtA/FYvPVNRnYOMlCONevWujlCCL+TcIGmONvbtSnQvL07nE+avmdGc1CcWSfcreG1IwsTfzIRuWXL8fxTsz3C2xd96dJdugR/ChLuchS8no9ABHPdyOiaZT6PHL+AgW1DR2B0D6BwzsyQDsmBES2/fqseBjKFEPVJwgWaWJG2UR18eBKFmomi3LNnz6qn3dmydRNnlz4P4qFJA1G+9HlM/7WV6GSM+EqeI9/LMXPiPXjslbcwf+5sPHb3GDzTZCTq5dEZOVkY6XzMf+GneH7ufOT/x/MIftpIA9AkFw8+koccZ79mfO9ruO8/ZuOtPzvbfs6NaPlbOfTcKCH8hS8Emljh5YORGLnBeYq1FWUOEtrHkHK+vhg4+SFM7FGO5S88g3zXhEy+dSpeeTYPI9tuxVtPPYaHn34LpdnT8MrjubCPW6oTGXmY6qw/t3IFZk55GM+vDXdHY/2TPGoq/vfNZ5A3ANg6fwYee+hhzHy7GM2HP4TXn5nodEpCCD/huzeqCCGECOAbC1oIIUQwEmghhPApEmghhPApEmghhPApEmghhPApEmghhPApEmghhPApEmghhPApEmghhPApEmghhPApEmghhPApEmghhPApEmghhPApEmghhPApEmghhPApEmghhPApEmghhPApEmghhPApEmghhPApEmghhPApEmghhPApEmghhPApEmghhPApEmghhPApEmghhPApEmghhPApEmghhPApEmghhPApEmghhPApEmghhPApjb5wcKdrcPz4cXeqgTlVirV/fgtv/HUhCgsLUVzKzGRk9OmLnBF34eEHxiKrlSlZk7rUFUIIH+MLgS6Y2guT5rgz4UgbiSmzX8bEPu68h7rUFUIIP+MfgX43B6NuzcWggX3RCfuxccUSLFyyHLvK3EI9JuL1v0xBbhN33qUudYUQws/4QqALC+aj+YixyGruZlg2PY977pyJ5WYmAxNffR9ThpuZKupSVwgh/IwvBglzRoURWNInD3eNc6exC6eOuZMe6lJXCCH8jM+jOJLRvEp8M9C8tTsZF3WpK4QQiccfURyRKJuPh0c/jPn0JXefiJcXTsHIeP3I51t3bT4e/0MRsr/+BMYlvYM3/roSJUed/GYpGPC1+/DN/m2AA2vw9txFWLebC4A23Ydj3LdHI9tZ5KV0/TuY9+4n2Hn4pJlPapWG7K/k4TvXpJh5IYSIhj8t6OOlKCx4Hg9/b1pAYJGFvP/7YHwCW5e6Hk4U5uPZd7YhbcjtGD0sGylnyrDurefxx/VrkP/SPGxrcQ1G3zEaw7Pa4OiOpch/fQnsmCQpKZiFWW+tRGmzHhg+6nbcPvIGpDcrRUlJQKyFECIWvrGgi1+5B2OeCgzpVZOMjOF34uHHp2Bsj3CO5gB1qVsD14KGI6zjfvx9DLJWcfEf8V+vrQZt5jZDvo//e2ePQL6Ts3T2f2HhjhQMf+AhjE5n3jb8ccarWN3sBjzw8O0wWYYzOFp+Bm2SW7jzQggRGX/7oNPSkJx0BDvXFqP0rJsXL3Wp69BiwM3V4kyy+qO3ueGlm2MRW3EmbTC4TzfnswylewM5VVSeQMU5d9qQJHEWQsRNk2kO7nQNTp8+7U41PEltUnD1dbdg9JihyLmiG9LaH0NZYTF27CjCikVv4k+FrZH71UFIC9Ol1KVuDfauw/ufHsSV130D13Zx8wwnsWPVKuxs3gejbspGWzeXJB3YZOqk9rkFA4y5nIJ2Rzdg1bbPsO7j3ahslYaMTm2R1MgUF0KIuPD3IGHpYsz40SOYvarczA788R/xv5NyzHRMzreuZ5Awb6CbZyjBwl+9gKUYjgd+PNrjtnAIW+cMSj98G/kFhSirdGYbpyD75tsx7tZsx+YWQojY+NzFMRJTHsmDldW1CxdirTsdk7rUrReSkHb9d/DQzx7H5PHDkZ1chqLF+Xj2rUJ3uRBCRMffAk0G9kVfdxKbymGehRQvdalbbzhCfc1o5P34AdzQATi5cQ3WuUuEECIa/hfo9Rux0Z1En2SkuZNxUZe6deIojgY8K9U0TkF7Oq6TWjiSLYQQsUm8QK+Yj7eKTrkzIZStxcxf5cM6BTKGDkSQW7gudRuUIsz75eP4rxffxMJ/rMTKD9/DOy8/i4U7gLQhw6vcLkIIEY3EC3T5Gjx2+zDcctckPPZcPub/eT7mz52NGf96D24Z/S08v9Q1RXvk4acPjAxMW+pSt0G5CjnXpKPpwUIsLXgH7/x5CT6paIsBd0zGA2OChheFECIiiY/iKJiOXpPy3ZnwJPe5C9NmPYmx3d0MS13qCiGEz0m8QJ8tReG8t/DKXxeiuHgXCne5Vm9aFnJyBuHOb01E3m1ZaB7uVu261BVCCJ/j7zhoIYS4jPF/FIcQQlymSKCFEMKnSKCFEMKnSKCFEMKnSKCFEMKnSKCFEMKnSKCFEMKnSKCFEMKnSKCFEMKnSKCFEMKnXHQCvaZsjTslhBCXNr4X6Hf2vBMkyj9cNSlofnbxK+6UEEJcWvheoD8uW4ufb/hPdy4YivVf9vzFnRNCiEsL3wv0v/SYaD5DLeWSEyXGkv63fj9zc4QQ4tLionjcKMWYpLdMN6I8KGVQUJ4Q0SnBwl+9gKWHnMkOw/HAj0dDZ018rHnjcczDODxx9yA3x1/4vX11xZcCTdfFwJSBmJh1r5tTT0R4A0vec1swdZQ743cOv4rJH72I1e5sNdmYfN1r+G57dzaE7YXfw4TdRUCL+zHnpu8j082vyWI8/e5PMded8zI+ezkecd9Mc3T/XLy49W2sPr4d23kGNUrFsHYT8P1+E9CvZaCM4cQq/HbdLzCnfA8ONuqCUV1+ikdzhqCNu5gcLX4E39iZiWdunox+9X5N54pz6qX7I641JQsx84WlSPv6E8iL8aLOughgyYKZeGFZmTtXTXYc242XS12gfeHioDVMFwY/reti9rbZDTQAmIsp72zBli2BtOAnucif1AvTC9zF9U4Bpveqx/UfP+hIjoMjiNlNu3hSRzRrZErU5MR8vEpxjodjB3HQTLQNWX8XNPO8jvzAgT9h8Ukgs91YjG8/xOkeDmLZ4Vn4wcpZ2HDOLYQ9mLt2Mmad6IfJA3+Ll7plo2j3ZPxyW4W73OFEAWZt34yx2Q0hzg4l61DoWM7Z/STOUaFoPz4TCwMXpvVINsY98QSesOnrzjnwh8cxc0EtN9Rg7fM3vhBoK8i0nMncG39vPiOJNMv9fGPwwCHLjf/7N4IiPOIh696pmDIUyF/aYApdv5wud2TPod2jeHXkXE96GuPbmRIhVGDx+llON4EgqzUipyucGg4tJmBa0PrnYnJXU8KQ2etlzL31t3jyusfwyHWz8Orw6RjLs+n0Kqx33zyGIwVYfMyxvK+ajlEdM9Gv9/0Y28Lpsg5W2/+rNz+L9e0fxT93cTNEw5M+Gg85YllfVmytGJiHcb2Ask/XBQwNERVfCDR9ysavfLIkpkjbsLvQ8DuWY/21hy6POOnBrSM7Kbwc3fFLvHQEGNvlm+jt5sVFi8wobhCHps3QzJ00tMxEF2thW0veOM+y0aWq48hEuiPQVeyfhRcP9scPckbG13mIS4JB/bKBQ6US6DhIuEAbt4YjrP/W92dxi3QodsDw/CjGrhVAbrcsd76agqm90KtXdarppgi4L7xlek2tLhSoPwn0etONEry8GLPvdvPcdM8rxe6yyGw/tt2dioOKuXiyqAAH2k52rN9UNzMGRz4L49+Owek9WF04CwsrHQlu/88YG2TJl+CAY0UH2O58v44lz7PuXBFe2zwHXTIfw0ivzzpu6Ft+HI8/7klvBHfO9E8+/sJS0AvKy2qWyV8bWBYK/aWPP56PGt372nwnP+TS2uR5tluj3hrkx7GcbTFtZJmqtofWjdzmsG2zx+VXC4MF0JR122HcBXa9bnlznMqw9IXANmu4INw6tk21dlFEwOx/aFsNgeMwc8H6emxf7HPG+90EzglbNjHulYQL9P844ss45784FnEskaZb469h4p5Z93wpmOoI6NApmHqvV6AD4jlp2xQscH3VW57Lq+GrLn7Fkd7nqv3ZW96Zgtw5k6qEdtR05j+HPGeaA5GmzHSORnL9YzCjx3NBdWt2EZFZvfu7GPZuLoYtugOPfjQHq0PHcx0B/O0nv8TiJqPw2DVja2+hHv5pYP3vjsIPlj2NgiOO+oaw+CMud9Li8ZhccgD9r3wZswZ7rOH2IzGsRQXmfzYLq48cRNHWFzH/ZCrGpo/E9s0/x9tNHsUPstq6hWuB+TG6A39V/s1xyN4yL+jHPuhuJ/+B4UhxpjkwxXJ1vqyn0P2hFMMfsNt9wlyyV2HaNg+lwx7wLC/CvDDiX7pkJgr7uesxg1wUh+C69NlGZGCOc31ShsJPvMpRglJGqxwqxDpP9poNRUCvHNT0xKdj9I+d7ZjjlFK1Xw+N8cS58Lj+DviOp01ly16I3HHEwLSlQ5qJpAlY08FtJSULlqDI2bsRY/rXT/viPGcs7NDfxHeqyo7rxc4hTAfewCRcoK9NGWgEmTechBNpCrgl1K1hWVtWmzNlOWbcXm21TpqTiyn/PjFYHAvyMWNFSP6oqXhugmMJvzHbkdcAWfe+Hhz9kT0ReU6Z5TtjWcIBqz1vuKeyUze4kwjP0XPAsOSxGJ86CiNbpKLLF4HBuckrnsTyU24h+p1XP4xZJ1IxPuvRWlmoR8/SfTLKWf9YjGrVBZmNKrDh2NuY9uF9+O1ht5BLl/ZsB8s57Ti3HfM/n4Rp65fhqLucLo3vDv4Fvon5+OmHd+CHO/ZgcK+XMLntXLy0G5iQMxZHNz+C7y8KCP03//E0lp9wq0ZhzSLHmuoVOnI/CHn8ER9aivfOUzjioWRfqSMuORjg0YdBd+dVCZ9pW4fh+I5HQAbd7QiBIzdLQqy6stQRwR1GSSlKHRHKucaz8oF5UTqVQcgJ9eeuLURRh2xkdyhD6V43z5GVwi3OKXbeA6XZGOcNTRx4G4Z3cERsQ+3lilbpvC2O0H7bXZ9ZlyN+i7zrKsG6T53rnrAdSjhit6/W54xT1tsJDPoSO4giFDbguRWOhAv07V1ux8QeEyOKNEW5fgmO4tjyzggsoWB7XRNLHct4Qh4mhhgvWd1ygRW7qgQ6QLCrYtIcJ2vbzpAyoWQhgwOTk+7B7DiDKyz9+r2GX97wGB4ZNB1P3vRnvD18OsY3cRacnY/5OwLxF0WFP8SThw9icNdn8Ej32lmobXpMx6xh0531P4Zpw+dizi2v4X4j8EWYu32ZKWPJ7sV2sJzTjhtn4fstKrF6/yPBURqtRuIHNxag4MvLUXDba3gksy0KNv4SFen/hrFHfo7HPt+MzMzXMH/go+hX+TamfjzXjSKJRBSxSR+AnPMUjnhJvyLNsfiW4oUal8bEbduI0DjrdKQ57SorDRbolLTgUkhPQ5q5jI/fUgv159I6Tbn6NuSkeo6DK/xpnQOztaaGUDr7Q4/ZwXj8yLx6qHYpvLAsDeOeeAijq3Y9HQOudq5xthRW77OJvHFE/Etxdigx21f7c6ZGWfPdOFc9+2LvcX2ScIGmADPeOVSkL9gNKI7l+vpzecCcfFcsi7Fzm/MxZ1KV6No05qnlLFBFwMc8BktGLKgSfFrZscnCxDdYttqaj8f/HJZWjrXbOdCTLD6ynv8xf3eRsWJX7/6e66Zwko2dPvkiJpj5xZyLTZNsfK9bwNLfU1GEiB7wlkMw/oohZtIbpRHK0e1P4qWTE3B/n2ys2leAPa3/GZN7ZiO143hMzhiCo0eXYXXVlUAYjNgkEMeiNZfbvDQ2ouMRU7dt1t9dndybZEJIuyL0HHcsuicecKy/alGL6UYwbg5r2VGIAha4EW5X9Eo+KXSs+mCr/8IREmb3RPXVhiX9mpwg67Te25voc6YOJFSgKc70KzM8zivS9DfXv+UchcwMx662ZKFbD+djgsc/HJSmwshVwfSAe8Sxxl+PwzURjoCP2klOB7H8qTFBVnxtqPwi4B/u0rSZ878ZmoXEL5uU1Nb1Ddv4ZpaNE3f9aNLWqR2Z5k1irPPcMvx623rk9vw++jXejhIKcdNU2OHL1OaOKYMDOBjNzeFaMvWNsYzjxQ1Te6JKTN0BJLdt1t9dI8V1M4XrE3bKPzDMka2YMcMB69xYgMa94QqbEW5HmEoC7oKUqwc4JX2KczxH9LJWbAO0t4HOmQtBQgWaboz0FulGlK1IMy9ebFmvX7rz+Vje23fBaxsbV8Yc55LcnY+fAiyni6O2jJpqbpiJ7RqpwJ4jIQ6A4wWYvy9g1/ZL7u/8H4bJIfHLJg2cEAizs/HN1w7jXA32HNmOoOHAs0V4bVfA2u7XtrcrpqtQsDWk3IlVmLMn4AIZlTrYfIayYcMsLGnzI9yfQZl3hLmp83G2ospnffAUzcxMpCcH5sPjEaRQ6nxTCgXNnXQxA1oRoZjSv2z9vVHadh6kj3koEDMc2qggXBeBczm/0Lg3rLCxLRxAXIfSQyF+bR9SZfGvfc+52uDgYH22tyHPmYYloQJNN8Z/D3kuSKTjvdGEvmsSWt7mx03RbNzD2789Puese/OQh3xMurt6QNDgWM1VURzG6l6OJR9UlzARIe50Na6/OehGmAJMD7KWi7F4idNF9OhWPSgZloNYsu4OjP3bfZi25kn8Ytl38c2lUzH3LMPbfoFHe0Szb8NwajGefj8Xwxbdh7nuAGBR0Xdxx3vfxWMfPYmnV96HCe9/Dy86Fm2blvfj0b79AoUcSV3/2Xcx3m2HKbd0Ml496chuq/sxITNMOw6+iBf3dcEP+o+qsuSHpQ1Dm4oX8cutRTh4YC5m7VqFzLTRGBn1rHRE8duuiyHID7wG+QzF6jXu/CI13IiIpb/zjOivzce8Le60S8mC/JCQO8dqrfLvOm0bQaGZV8PqXfNGHH7lkoXID6oX8J3W8FWHYFwEhwpReNArxAHhLvu0EKXxuAtc/3dwRMgFxHXVLFlSGn5wsE7ta6Bz5gKQcB90qEjHS+cWgREPbwx0fOIcHMXR6/YZyGIInAl/s4zC1C0LMAUzMMaWY3ojA3m2mOu7Nq4Jd/ny4eF80FmYeDd93K5P2wpzkI/bDbkLakM42iKzTT+kfrEBBQfnYz5jopP6YeyVs4LD2+pAl+Qh6N1oDxYfno+55RtQ0TgTIztNx0u530d21dkyGKOvHOWU24FlTjtYrrJJoB2vBpWzbMdvN81B2+6PYJQnoqRN1jQ80/kqFG3/HsaufRF7Wj+KaQPCW/ZBGBeDGyJV5ed1w9PiciOEo3pE/wW7zg05YcLcSqticU0yIXeeQS/XR41lL1SXcdKStNtqik4YSoPqBfYpKKQsHGagi1HCwUIcEG4nPzUQ0hadQbhtmCPo7vbrK845ftztO+0Nb83WsX0Ncs40PL55WBKFlmF18Yg0XRsUdcI6tKIp8Hz0aG1cJEII/2AervRpjp426CHhFrTFa0lHg8utOPPuQuvikDgLcTGzBu8t8/lgZgLwjUATK9KM5giFwsz8uTcF7iykMDMkj3msI3EW4uKl+s5BybMXXz+w3z6ng4QKMAVaoizExU31M6MZL10zRvpy56J4o4oQQlyO+MrFIYQQohoJtBBC+BQJtBBC+BQJtBBC+BQJtBBC+BQJtBBC+BQJtBBC+JSoAt2okX09sxBCiAtNVIFu3FgGthBCJAoJtBBC+JSoCtykCd9GKoQQIhHEtKCTkpLcOSGEEBeSmD4MCbQQQiSGmAJNK7pZs1q8AVoIIUS9ENcoIK3opk35CmYhhBAXirgEmlCgZUkLIcSFI+oD+8Nx7tw5nDlzxiQhhBANR60F2kKhPnv2rPlkOs/VCCGEiMB5C7QQQoiGJW4ftBBCiAuLBFoIIXyKBFoIIXyKBFoIIXyKBFoIIXyKBFoIIXyKBFoIIXyKBFoIIXyKBFoIIXyKBFoIIXyKBFoIIXyKBFoIIXyKBFoIIXyKBFoIIXyKBFoIIXyKBFoIIXyKBFoIIXyKBFoIIXyKBFoIIXyKBFoIIXyKBFoIIXyKBFoIIXyKBFoIIXyKBFoIIXyKBFoIIXyKBFoIIXyKBFoIIXyKBFoIIXyKBFoIIXyKBFoIIXyKBFoIIXyKBFoIIXyKBFoIIXyKBFoIIXyKBFoIIXyKBFoIIXyKBFoIIXyKBFoIIXyKBFoIIXyKBFoIIXyKBFoIIXyK7wR63rx52Ldvn5l+9913TSLM47KjR4+aeSGEuNTxlUBThCnAVqCPHTtmErHL7LwQQlzqNPrCwZ1OKNu2bcO6deuMCLdp0watW7c2omynKcxcdsUVVyArKws9evRwawohxKWJLwSa4rxs2TIjxrGwLo4vf/nLRqxjcfz4cXzwwQc4cOAArrvuOvTu3dtdEhm256OPPkK7du1w8803o1WrVu4SIYS4cCRUoK3LgpYzreW8vDx3SWRYh75oivOAAQOMdR1N2L0C3bVrVwwfPhzNmjVzl9aksrISS5cuxe7du9GxY0cJtBAiYSTUB71o0SIzCGhdGRaKMK1Yb7J+aVuO86zLdcQDBf3w4cPYv3+/mxMeLi8vLzfWsxBCJJKECjQtYCavOFOMaSHT5eFNVsgtrMO6ubm5bk50mjdvburs2rUL586dc3ODYT6XJycno0OHDm6uEEIkhibTHNzpC05KSoqxbHfu3InTp0/j6quvRllZmZm34s0BQQorxblz586mDl0i/Bw2bFiQuIeD692xYwfatm1r6nz++edITU0NW4/W86ZNm8wAJOudOHEC3bt3R9OmTd0SwJkzZ7BlyxZ8+OGHWLlypZmmxd2+ffsg10lhYaHpWCj0e/bswfLly00d7gc7ADsIyjymzZs349SpU8at0qRJE3ct1ezduxerVq3C6tWrsWbNGnz22WfGfcPtetvHvPfeew+HDh0y+0tfOtvBfeF2KioqjKsnFHZMBQUFZttsgxAi8STUgqZoeeOevVC4bQonpvRdsy7XES8UpqSkJONfDgfzW7RoYQSKghYKLeyPP/4YGzZsMGXoz2YHQmGnCFL8Qtm6davpcNj55OTkGPcNRZNXChRbCiwHL9PS0rBx40azbi/cJvOWLFliBLxv376mY+rUqZNZ99///vew22W9Tz75xGyHnU3Lli1Nmync4UIVuQ/sNNLT090cIUSiSahAUxDOFxvNYT/jgWJIIWSHQKvXC+etlU5rOxwURFrDN954I66//npcddVVuPbaazF06FAj6LSmvVA4KY4s37NnTwwaNAjXXHONyadIU7SZR4ud6+vSpYtpg1dAaTnTumZHwMgV1mF5unaYWJbCHuq24ZUI8+68804z+NqvXz8j6keOHMHBgwfdUgG4Dgo0ryxo3Qsh/EHCfdDjxo0zVnIoFKrQAUIvrMO6FK14ady4sRHVkydPoqSkxM0NwEt8ui/o0mjUqJGbWw2jO2hhU8BD20s3BsWNIs9yXrp16xbk+qAVyw6AHYXX1WAtd1rJ1nqnwNIlwyiS7Oxs034vrE+Ll1ZxaEfFfenTp0+Q4LIs5yn6XijOFGl2EEII/5BQgabw0p/stRitVc18O0BYXFxs8rwWN+uwDAW8NlBIKYS0hK2Y0m9L8aVo0soOB7fHVFRUhPz8/KD05ptvYvv27Ub4KYwWCnGoNU4XC4WW+8KBSy9c5oViTWub6wgX6sf1sL1sf6hAU4hDt01XEf3SXjcHOwF+D+xkaGELIfxDQgWakRkUWa+40DqlVUw/qzeF3pjCOqzLVBsoghkZGUakrBVNgaL1y/xQK9Vy9uxZk3r16mVcFuES3QihMdbhrHESKd8LQ9S5Ta4zVLwtFO7QjoHQ5+wdPCTcN+4jxZlWM+Fx5LFgpxUtPlwIceFJqEBbF4UVXivUnKef1ZvClWFdrqO20E3BOGe6DyhudG/EsiApqEwUuczMzLCJ4hdJSM8XbpOWfqgAW2hlU6TjFVfrZ2anROuZN/CwEwgX2SGESCwJFWheclNo6Yum8DIqI9R9EJpYhnDQzIp2baF1Sd8wxYkuElqQ9D1HEzmKIOvR5UBRvBCwPXSFcJt0Y4RCgeWAH9sVzgUSDpZlB8VBRA4Y0tVD6zmSa0cIkTgSKtAWihDdGFZwrXBbOG1D7fjJsrSq6wIHzDgwx3hlihtFKxoUNgpZaWlplU/cC61wil59QmucHYn1fVOQvdBvTjcN216b6AteKdAq5xUE765k/UiuHSFE4vDFr5KiS8GlJU04TfcF85k4bQWZoWV1FWdCQaPw08VBgYrHAmWoHF0E69evN8/3YNgdhZM3hvDmEboK6hsKNCNP2CnQZ//pp58aq3/FihXmxhO2h7HRtYF16NLhwCYHKs/3SkQI0bD4ymyyURpWMPjpnaZYeyM56gr9rrSK4/W/MiqCD09iyButZYokxZp33zGOmeuqb2jZMlb6hhtuMNux0S10y3BQklcTtR3co2XOTomuE4p1vO4RIcSFxTfPgxYXFt78QveO17UkhPAXcjxehtD/zMFBujmYhBD+RAJ9GUJxpouE/u3QWGkhhH+Qi+MygWF6HGhkXDU/aTnzGSISaCH8iyzoywhazvQ9c4CQT9CTOAvhb2RBCyGET5EFLYQQPkUCLYQQPkUCLYQQPkUCLYQQPkUCLYQQPkUCLYQQPkUCLYQQPkUCLYQQPkUCLYQQPkUCLYQQPkUCLYQQPkUCLYQQPkUCLYQQPkUCLYQQPkUCLYQQPkUCLYQQPkUCLYQQPkUCLYQQPkUCLYQQPkUCLYQQPkUCLYQQPkUCLYQQPkUCLYQQPkUCLYQQPkUCLYQQPqXRFw7utK/Yv38/NmzYgIqKCgwfPhwdO3Z0l9SEu7Br1y4UFxejrKwMx44dQ+vWrdGpUyfk5OQgJSXFLVk7zpw5gx07duCzzz7DoUOHUFlZiXbt2qFLly7o3bs32rRp45asyfHjx1FUVIQ9e/aYfSCse9VVVyErKwtJSUkmTwghIuErgaYgUtC2bNmCkpISk9e2bduoAk3RXL16tRHncDRr1gz9+/dHnz593Jz4OHnyJD766CMj0OFo3749brjhBqSlpbk51ezcuRNr1qypEuZQOnfubOpy34QQIhK+EOhTp04ZMaQ4U3C9RBPoc+fOGSH89NNPzTytZopf06ZNcfToUezbtw+nT59Gy5YtMWTIEHTv3t2UiwXXu2rVKmMBE267W7duaNKkCbZv344DBw6Y/CuuuAK5ublBljQt/5UrV+LIkSNmnu2hmHOde/fuRXl5ucm/8sorMXToUNOBxIKdBDus5s2bmysCfkaDx3DTpk04ceIE0tPTg/abx+rw4cPuXIDGjRubNrJNLVq0cHOFEInGFz7os2fPGkGlsFBcMzIy4rIuKegUTEIRHTFihBFMivHIkSPNJ8WZQrVt27Ya4h8Jrvfzzz8303STsIPo27cvrr76atx6661GrAk7gN27d5tpwiuAzZs3V4nzgAEDTHm24/rrr8eXvvSlqroUXG/deGBHRhdOLOiO4T5Hwgpyhw4dTGInwToUdV45CCH8gW8GCSkSFMBRo0bhuuuui2klEgqpFRT6dik2Xmg5UmDJwYMHqyzfaNDSpT+b62Vn0atXr6DOgu3ktriM0CqmlU5omVLoCK3rnj17GjG0tGrVyvifaaWyDgWaoh4PtN65Te4DO7RIcBnLsLx32164jPuQnZ1t0rXXXmssbXYA8RwjIcSFwRcCTeGyliYH9Bo1auQuiQwFzlqJFNBQcSYciLM+YgpuPNYny1kLmOtNTU010164reTkZDNNPzOtf8KBQet35nLuVyisawWfZWtjsdKF491GOLiMZeI9jhaWp3BHE38hxIXFNxZ0Q+EVSUZ3xILiZkWTdcP5ZGnd2/WybDR3Qii0gu066XKpjUBbEaV7JNzQAfO4jNtgxEht4H7z6oGdgBDCH1y0Ak3rkGJFaDVa10Io3gExCql1R0TCa6HSfx1uEI8CyGWEAmvdFLTYrfhyMJDrCoVtsB2FtXbjheumZU6LPVxnwzwuo3+ZxGMNU5Tp1qC7iB1AuCsRIURiuGgFmmLoFRNGOljXhIWDeJHC5CLhtUzjdRHQd0totdqIDnYYjJ/2rs8OIkbqTGLB9tBlw3WWlpa6udUwz5aJBjuptWvXYsWKFfjwww9NiCJFPdRnLoRILBf1r5FhYRyMIwxvW7RoEZYtW2ZC5JYuXYolS5bUEO1YxOMGCcVa5XQPcGCSFrYVwYKCAhNCyMT2UaDrAjsB+rB5ZWA7BkJLnj52bycRidAoDrprePzWrVtXK3eNEKJhuagFmkLECAR7SU9xYTgdY31pvVIoaRVa6CJgXjTOx4L0+ql5hyG3abdDq5aizERXQteuXU1sNKHQWldJvFgLmf5r76An100LPZb1TEKjOHgjDyNo2Knw+GmgUAh/cNFfz1KQGAHSr18/40MlFL3MzEwTC83bsi2xxJmEi7yIhfe2bQr8oEGDMGzYMBPPbQWYlirDB3lzim0HhfJ8bvmmlcz1UvwpyhRWuk3YdhshUlvYyTGxk5MVLYQ/uCQcjhQmWtK333478vLyMH78eNx4441GsL0hadbSjoZ3oI9uA+u+8MI8K2LhrGBaubwhhR0E28I2ffWrXzXWNa1TOzDIdp9Ph0CBp+BzPXR10I3D9vBmHTtwej5wQJT+bQ4cCiESzyUh0JGgG4C+VUJxthZ2NCi2VqApgOHuPmSeFWhvyF080Oq1t3uzTfHckBMOXjlQULl/TGyzd9D0fOB+sXPRQKEQ/uCS/iUydIx3EBJal/HEBtOvbd0EDFkLd3ML8+zNKRTZUAs6EhRA3kJOC5wDivRHny8Udm6bVwgUfN5QEy4kMF5oiTNxX+LdHyFEw3JRCzQvxb2RDF54G/X69euNm4JiSJ+01zKkwC5evBhz586tetgSofvADuKxLkPQvFY0p5nHZbRa6Wf2rpfLw92+zXxGdfBJd4TbiGdALxqsz21bl0e80M3CQVQ+DIqJx4nHgOuyD4USQiSeJtMc3GnfQAuT8ct0MdBSZDhdODcChXD58uUoLCw0Vi2tST5HY+PGjUZwWJ/ixSfAMWrBC5fzsaZcB8tR7KzlSCua1qS1ThlPzXKMlKDI8vkbhNEajIKgW8DCjuFvf/ubKcs2cT1bt27Fxx9/XPUIVT4fZPDgwUHRH9Ggj5nhf7wK8LpEuG9sH9ttOxUL94nb59WA1/fOdtE9ww6Gn0wUbLp/+NwR3UkohH/w5QP7KS4ffPCBERMKTKTHjVLIGfdsrdJQKFx8Ch0H57wiShjzy0QoYNyG10dNceNNHOFuCCG0yPmEulC3Al0YbHskGFXCaI7zjbYQQlw+XNQWNEXXCi/dHXQj0Kqk4PKpcRRQCmKoOBNainRzcFuMAbaPAbVQ3Lld1mUZWpwUY1rajBtmWB+3FQrdA9blQaub1im3xRtqGGnCR5DGazkLIS5vfPvKKyGEuNy5pKM4hBDiYkYCLYQQPkUCLYQQPkUCLYQQPkUCLYQQPkUCLYQQPkUCLYQQPkUCLYQQPkUCLYQQPkUCLYQQPuWiE+jSk+EfXiSEEJcavhfoHUe3B4nyB3uXBM0XHi50p4QQ4tLC9wJdevIAVh1Y5c4FQ7HecXSHOyeEEJcWvhfonPY55jPUUj5+5rixpId0HOLmCCHEpcVF8bhRijFpldTKiHJai7SgPCGiwZcu8DVlhM8Jr+urxi4X+Dq5DRs2mOei+/GY+b199YEvBZqui46OCFvrub6I9LaTm2++2XzJFwNfOH9by7diS/kWnDhzAo0bNUanlp1wTYdr0CapjVsq/nKROHDyANaVrcPhysP44otzaNI4CVe3u9qkbRXbsPbgGrdkTZo3aYGR6SPNdg6dOmRcVBWnK9C0cVP0ad8HvZJ7uSUDcPmxM0dx4xU3oUmj+n0fIsV5+/bt5q06ycnJbu7lDV+GwbcV8aUT0d4qXxcB5MsqNm3aZF7V5oUvuYi13Xi5HATaFy4OWsN0YfDTui42OfMNMQDIV02NGTMGeXl5Jg0aNMiINsW7IeBbYRYsWFBv6//k0CdYd2gdTp49ifbN2iPJEc69x0uwYv8Kk2eJt1w4KOx/3/d3lJ0qQwtHbNNadDLCaeslNUpyRLh5jUQRJy2btESLxi0c0T2GlaUrzLZv6nwTOre8AhsPb8Se43tMOVLitGn/yX3o275fvYsz4Vvd+QabcG/kEdXwHZ3elyfXF3y70dChQ6sS3y7EV83xXZq1oaHa53d8IdClJ/cbQV7iWM7kKxlfNZ+RRJoWdujAIcv9dddfjbjXBr4ola+7si+C9TMHTx3E50d3GMHLTcvFbV1uw1edY9W5VTqOOJYureXalAtHWWUZNh3ZZCzu3E65pt7NnW/G2G5j0T+lvylzZZsrcYcz701jun4F7Zomo5FTLys5y2yb30XluUpzJdTJEfk+zifFfb/zfZMz587gU2dbXVtlOFdMNd85KRqG7t27m5cW14cVW1v48ma+Eo7v/BSx8YVA00IL+JWPxRRpG3YXGn7HcqxfW4G+mDhSeQSnz51GSrMUpDtiS2h1dm/T3RHUJmbfKXrxlgvHtvJiVJ49hR5te6BLqy5uboBoFu7u47sdcT/siHQ7ZDiCS87RNeIIcpumAZcKrewWTrJsrdiKs1+cRe92vd0ccanDToFWNN8mL2KT8JfG0qXBS+HMNpnGumPiJTDn6avc6lh7B1zRpYjb5aS7U6Z1UmuzDpYjLMMUjiNHjhhLmT4re8lLPxYHkOjDCvVj8a3e77//ftUbwHm51q5dO3dpwH3x3nvvYcWKFVVl+HLZrl27muWs/49//MOUo9/Pu5wvouUyJls3KSkpqi+N1u3eEyVmnym2Fu4/BfKcI3bd2nQzxzOecs0aB7+RnC6MwiPsDL9A35S+cQ/AUmTXlX2CE2dPmHodmncw+YH27kWXlunOugLfU3FFMdo1a4eWTVpgQ9l65HjK1wZ+b5988olxHe3atcskvqCX3xHhJTSPKYWAx3rPnj3GaktNTa16qa+F/tKNGzea5aFvj+dldUlJSVU9W/azzz4Lu11it823zXN56HZ5LnAZ/bH0obJtdL1RvLiM27TrjtRmEto2YrfNdnrbxLL0O3P/uA2e86zH9a9fv96cl0zc5r59+8wysn//fnPOs65tF7dp2xsJvsSZdfgS5dBjynzClzCzrfykaHuxbSQ83vXRPo5HcF9ZJlI5Hj9+J23atDHf8datW4O2yd/ohSThAk1fKX2eJKd936gizR+4/SRWoHnJ7hXx2gj02rVrzSffuM2TiVjx5En+la98BQMHDjQnO33VXpHesmWLEdubbrrJvK2bbxAvLCw0JyeFlst69uxpTowhQ4aYclacly1bZt4czvXbuhQde+KFgwJY4hyXyi9OG5eAFVBaogdPHjQ+4My2mUYw4ykXKtBHzxzFZxXbkNS4qXNcW2FF6Uqsc76fzUc248jpI2aQMZwVTREudr5Dfhd9U/oZ9wZp0rgJdh3fhfLKciQ3SzbfU/npcjNQyHW2dLZxPgPBPJ48znxTOgecMjIyzAAgxbqiosIIAn90PNZ8czu/12uuuQbp6elhhS6WmNjvk58c+KKw8nyx2+X3aQcg2baioiL06NHDDEx27tzZrIOJ3y23z/OQ7eT3zfbTxWbFmeXY1szMTFOXHQzPt3Dt5vg+y3O5FRkKDP3uXGa3x+3s3r3b7D+FkNun0dCpUyfTbu4HjxN99dwvnosUInY8FEBug0JmjzXbzt9RNMGKdExtW9hm1j98+LDJCy3DgV3m8djUR/so3izbp08fE8nDcvx9U4R57GwHwW1zfSzL88d+h+zIeFztMb1QXLgtRSDNERC6JnjDyfaj2zGk43VGYK27I5x7IxQrzvHAL4+Ddvn5+SaxF+3bt6/50VmYxxPHm09Rz87ONl8of5AkJyfH5Ft4QvFHwJMpGqzPHx6/eAvrcv3RuKLlFUhpnmJcEDw27+4pwF92/cU5bp+hUaNGbqn4y4VCC/oszqHy3ClsOLzBEfCmxrplRMjuY7vw0YGPjPiHwu+O+emtuphBRUty02QMTh1shP9ve94zvudBqYNMVAmFmq6NDw98iN/v+L2T5uKDvR/EHMDkj4o/Ph5n+lItFBqKGr9filRDQEGorKw0P1KLFThi28ZO3F4JUSDYTlp//JFbKGCs5xU4nhMUCiu2XEah95bxwm1TLLzrpYgwn21lIvZ4MP984P54jzUFku2v7XHm8WHnRYuZ4sf94m8g9DvjNNefkpLi5kQnVvv4yWiS0Ege1mFdfmdsmxeeX97vkO3kd8iO7UKScIGmFczBo0giTVGuT9jTeqM4hg8fjqVLlxp3hMUKgLdXJ7zssZfMFk4vWbKkSvB5AoaWCYWiT+uZ1jt763ih9ZrbaRi6ts5AI+evvLLCDLpd0+FaNHU+ObDHv3jLReKcY331a98fX+ryZdySfqsZaKTVffDkARN254XhcxyUpDXerXU3N7eazi07m4HG8ZnfNJ+pzVOxuXwzstpmme+bURzXOu26tsNA4xL55NDHbs3w8AdCkQz34w0nWPUJrUGKC627cOJk20aB8ELBZbu8P27OWyG28JygYUBLOh6s5cfzjdD6o4hQWCjOto3cLtttrxBri7dDIuH2JxLcH7oAmVatWmXO/f79+1d1OpE6Gf5O4+1QYrWP6+b+h4vkYd1Q4WXd0PPLflc8xheShAs0BZiXuaEiTZ/lhYAiTBcGrWaKpbVuKbRWdG1asyY49pei/rvf/c78IKzgx7KCCU/SESNGmE7AWvO8ZI8HCuHQtKH4evevO6I3HqO6jjLxxWccC5bWq3VbxFvOC4Wb9jVdIhmOuFtSW6SijfN9cOCRA5BeSk6U4JRjqbdtlmws5lh8euRTNHe23bVVV2NRX9GikxmQZOI0BxqjWdH8gdA6SgQUFYoLxYPfF0XHK6ZsG88fu8wmdsShHXY4waRFx8tvnousR39pqGUXCgWG1iG3TUHmOikuFG4KHeszn2IXyRJvSGihesPsrr76andJANvJsI1sK/eD+xMqunXBdmAXIwkVaIozw+UYHucVaUZk1LflHA32rPzBEGvdUmit6HoTrW+Wp7+TPyTO09VxPlx//fVmnTfffLMRf68VXxv2Ht9rBv541WH9v+GIVY43ljR1xJMRHhTjUBhCR0vcy/4T+5z/X5h1UuCjwZtfKOhXt+uDc3SlnK1Ei6SW7lKYaW77zBeRRclaR/UJhcu6suKBIkOxsWJK/yZh27geng9eUbLJexkeCXb2LEujgdY4B0KjWW3cpr2ct+4N7g8Fjp0C8yNdcfgFXnGwjbRi2V4Sr/UcD/w9X6wkVKAZXhcY3T9WJdL8oceLLev1S3Nwq7bwxOAJYqEr49ChQ3FdwnlhedarLfRj84aZWK4RYgdILZ8f/dxEZlDcQiM2vEQq54WWc2rzDsYiZrSFhQOLR53viFY3fdsWRovQoqbYx/re6KPeeHgD0lumGx85hZ71vB3ByTMnTBheOOveYi81w7kx+OOuje8yFB57r8VqrblIUEx5FWTrRWtbbeG6GKNPogk0jQUOntGVwEt1u++sz3Oa+ZEu7/2CNZB4BUv3Iq9q7bGsD7j+SP5jdmp+vpEpoQJNQRjReUSQSMcbx0zfNQktb/PjhScFL0G9PmcONpGPPvooSDBpNds7Au0XytFeC8NzQn3K1iLniWfhicLwIgu3wdF/lotlya0+uBp/+vxPWLx3sRn448Ad4417J/cOcjHEU67idLk55ixHdwOhddsyqQWKy4uxYPcCLNqzCMtLlxvLu0fbq9C2aVtTjtBnXOkILG/tjuXe4O3hp85VmlvFCd0sHZt3NNE6XMa0z2kD47ZjCTQ7NFquXvcCxZm+YRuZUFusq4ARBhbvgDChUG7bts2dCwx6cbv8zmi1sm08h9g2fp8WlmM9r/iHg2W8YmyFPppYcbvcX7bDK8RW9Jgfj3uD5551lVxo7D5wfyNZ+3VpHztSuqU2b95sjoeF5w8HKHllE+v4JIqEh9nRL0p/JH+oFOl44U0UtNoYweGNiw69ucILw4sYGsfYRgokE6d5Sel1U/AHxy+NsaoMh7NlaZ2xHP18/AEw0VdolzPqgz8m/hAZHsRyTLwkpwuDZdiTU0Qo5rYu4zw5SkyXRyxosXKg7ujpCmOV0qK9vuP1QT5jEk85Rmt8fmynEW7mM0yOwnlFy84myoKJ/uBWjtU9MHUgeoY8Q2OnU5d3gTKEjj7kSBEi7Ag+KVtnxNl7xyCn2UZa6/tO7EPX1l3RP2VATFcJfZb8QbOztLHGFERGPIQO0LHD5PfGH2k01wjXyYE1iquNk2WkAcPVbH1O206ayxm/zHpevyp9rjwHGMNr18Ny/H4pEoTnIYUmtE2MtWUnY+uxTDzPreA6uJ8Utg4dAjHlzOO5Rgua4Yhsp8UbZmeFiQJIY4MdVLg4Y299Hifm8/zn/oaDx4xt4vkfOtgeDrt9dir8DkO/q7q2j23g79Ibv87jyzEFb13m8SqY6/ced+bT2ub6vOUbGt88LImX5AwJi0ekKcw3O5Y3sQ/wpxXOR4/WxkUihPAHFMBL/cFH50NCXRxevO6OaHC5FWfGSFsXh8RZiIsX6wI8H/fUpYzvHjdKS5phdozk8EJh5uCWvfOMwswIEOZRmCXOQlycWOuZboh4Il0uJ3z9wH6KNSMFSKgAU6AlykJcvFhh5kAsB+klzjW5KN6oIoQQlyO+8UELIYQIRgIthBA+RQIthBA+RQIthBA+RQIthBA+RQIthBA+RQIthBA+RQIthBA+RQIthBA+RQIthBA+RQIthBA+RQIthBA+RQIthBC+BPj/JWVvG516R6cAAAAASUVORK5CYII=;" vertex="1" parent="1">
          <mxGeometry x="634" y="413" width="181.82" height="150" as="geometry" />
        </mxCell>
      </root>
    </mxGraphModel>
  </diagram>
</mxfile>
